<svg xmlns="http://www.w3.org/2000/svg" xmlns:xlink="http://www.w3.org/1999/xlink" width="130" zoomAndPan="magnify" viewBox="0 0 97.5 30.000001" height="40" preserveAspectRatio="xMidYMid meet" version="1.0"><defs><g/><clipPath id="8e5e3b9373"><path d="M 4 6 L 8 6 L 8 10 L 4 10 Z M 4 6 " clip-rule="nonzero"/></clipPath><clipPath id="f635e7a315"><path d="M 7.976562 9.742188 L 4.347656 9.65625 L 4.417969 6.753906 L 8.046875 6.839844 Z M 7.976562 9.742188 " clip-rule="nonzero"/></clipPath><clipPath id="4448762fd7"><path d="M 7.976562 9.742188 L 4.347656 9.65625 L 4.417969 6.753906 L 8.046875 6.839844 Z M 7.976562 9.742188 " clip-rule="nonzero"/></clipPath><clipPath id="8cecbc246f"><path d="M 2.003906 8.390625 L 14 8.390625 L 14 20.730469 L 2.003906 20.730469 Z M 2.003906 8.390625 " clip-rule="nonzero"/></clipPath><clipPath id="3db026d2e4"><path d="M 2 8 L 10.039062 8 L 10.039062 16 L 2 16 Z M 2 8 " clip-rule="nonzero"/></clipPath><clipPath id="9df6deb622"><path d="M 19.296875 10 L 34.539062 10 L 34.539062 21.941406 L 19.296875 21.941406 Z M 19.296875 10 " clip-rule="nonzero"/></clipPath><clipPath id="faddf0f9c6"><path d="M 25 11.054688 L 31.734375 11.054688 L 31.734375 19 L 25 19 Z M 25 11.054688 " clip-rule="nonzero"/></clipPath><clipPath id="e60006dbe6"><path d="M 4 11 L 10 11 L 10 16 L 4 16 Z M 4 11 " clip-rule="nonzero"/></clipPath><clipPath id="90378c8697"><path d="M 9.796875 10.535156 L 9.492188 15.605469 L 3.695312 15.261719 L 4 10.1875 Z M 9.796875 10.535156 " clip-rule="nonzero"/></clipPath><clipPath id="55930e3a44"><path d="M 9.796875 10.535156 L 9.492188 15.605469 L 3.695312 15.261719 L 4 10.1875 Z M 9.796875 10.535156 " clip-rule="nonzero"/></clipPath><clipPath id="5d44bea0d7"><path d="M 26 13 L 31 13 L 31 18 L 26 18 Z M 26 13 " clip-rule="nonzero"/></clipPath><clipPath id="52431e2b31"><path d="M 30.980469 13.265625 L 30.675781 18.339844 L 25.605469 18.035156 L 25.910156 12.964844 Z M 30.980469 13.265625 " clip-rule="nonzero"/></clipPath><clipPath id="7298f96e5b"><path d="M 30.980469 13.265625 L 30.675781 18.339844 L 25.605469 18.035156 L 25.910156 12.964844 Z M 30.980469 13.265625 " clip-rule="nonzero"/></clipPath><clipPath id="94fae542b5"><path d="M 12.285156 8.453125 L 22.449219 8.453125 L 22.449219 22.242188 L 12.285156 22.242188 Z M 12.285156 8.453125 " clip-rule="nonzero"/></clipPath><clipPath id="98b6c061e6"><path d="M 13 10 L 20.996094 10 L 20.996094 19 L 13 19 Z M 13 10 " clip-rule="nonzero"/></clipPath><clipPath id="8c6e134138"><path d="M 15 13 L 20 13 L 20 18 L 15 18 Z M 15 13 " clip-rule="nonzero"/></clipPath><clipPath id="ba7ff1668a"><path d="M 20.382812 12.621094 L 20.035156 18.417969 L 14.242188 18.070312 L 14.589844 12.273438 Z M 20.382812 12.621094 " clip-rule="nonzero"/></clipPath><clipPath id="69726cc4d8"><path d="M 20.382812 12.621094 L 20.035156 18.417969 L 14.242188 18.070312 L 14.589844 12.273438 Z M 20.382812 12.621094 " clip-rule="nonzero"/></clipPath><clipPath id="6fbe9e4227"><path d="M 19 9 L 21 9 L 21 11 L 19 11 Z M 19 9 " clip-rule="nonzero"/></clipPath><clipPath id="f8f5b74d31"><path d="M 20.636719 9.078125 L 20.550781 10.527344 L 19.101562 10.4375 L 19.191406 8.988281 Z M 20.636719 9.078125 " clip-rule="nonzero"/></clipPath><clipPath id="281a769438"><path d="M 20.636719 9.078125 L 20.550781 10.527344 L 19.101562 10.4375 L 19.191406 8.988281 Z M 20.636719 9.078125 " clip-rule="nonzero"/></clipPath><clipPath id="f20c536f8f"><path d="M 17 8 L 19 8 L 19 10 L 17 10 Z M 17 8 " clip-rule="nonzero"/></clipPath><clipPath id="a40c6d7dcd"><path d="M 18.457031 8.21875 L 18.371094 9.667969 L 16.921875 9.582031 L 17.007812 8.132812 Z M 18.457031 8.21875 " clip-rule="nonzero"/></clipPath><clipPath id="859e6b685f"><path d="M 18.457031 8.21875 L 18.371094 9.667969 L 16.921875 9.582031 L 17.007812 8.132812 Z M 18.457031 8.21875 " clip-rule="nonzero"/></clipPath><clipPath id="4982df0c60"><path d="M 15 8 L 17 8 L 17 10 L 15 10 Z M 15 8 " clip-rule="nonzero"/></clipPath><clipPath id="e70cde47b5"><path d="M 16.253906 8.808594 L 16.167969 10.257812 L 14.71875 10.171875 L 14.808594 8.722656 Z M 16.253906 8.808594 " clip-rule="nonzero"/></clipPath><clipPath id="b93427c48e"><path d="M 16.253906 8.808594 L 16.167969 10.257812 L 14.71875 10.171875 L 14.808594 8.722656 Z M 16.253906 8.808594 " clip-rule="nonzero"/></clipPath><clipPath id="d7772f9922"><path d="M 7 15 L 12 15 L 12 20 L 7 20 Z M 7 15 " clip-rule="nonzero"/></clipPath><clipPath id="821611da27"><path d="M 7.585938 16.035156 L 11.101562 15.132812 L 12.007812 18.648438 L 8.492188 19.550781 Z M 7.585938 16.035156 " clip-rule="nonzero"/></clipPath><clipPath id="fa8716fa96"><path d="M 7.585938 16.035156 L 11.101562 15.132812 L 12.007812 18.648438 L 8.492188 19.550781 Z M 7.585938 16.035156 " clip-rule="nonzero"/></clipPath><clipPath id="a3df920a17"><path d="M 8 16 L 13 16 L 13 21 L 8 21 Z M 8 16 " clip-rule="nonzero"/></clipPath><clipPath id="453005d7c0"><path d="M 8.355469 17.285156 L 11.871094 16.378906 L 12.59375 19.191406 L 9.082031 20.097656 Z M 8.355469 17.285156 " clip-rule="nonzero"/></clipPath><clipPath id="5d082932fc"><path d="M 8.355469 17.285156 L 11.871094 16.378906 L 12.59375 19.191406 L 9.082031 20.097656 Z M 8.355469 17.285156 " clip-rule="nonzero"/></clipPath><clipPath id="b186ea89de"><path d="M 28 17 L 32 17 L 32 20 L 28 20 Z M 28 17 " clip-rule="nonzero"/></clipPath><clipPath id="478ad30f00"><path d="M 29.199219 16.917969 L 32.03125 17.558594 L 31.550781 19.683594 L 28.71875 19.039062 Z M 29.199219 16.917969 " clip-rule="nonzero"/></clipPath><clipPath id="d6a686f395"><path d="M 29.199219 16.917969 L 32.03125 17.558594 L 31.550781 19.683594 L 28.71875 19.039062 Z M 29.199219 16.917969 " clip-rule="nonzero"/></clipPath><clipPath id="d37f53f907"><path d="M 16.617188 20.277344 L 20.972656 20.277344 L 20.972656 22.457031 L 16.617188 22.457031 Z M 16.617188 20.277344 " clip-rule="nonzero"/></clipPath><clipPath id="92698d1142"><path d="M 17.441406 20.34375 L 19.617188 20.34375 L 19.617188 21.792969 L 17.441406 21.792969 Z M 17.441406 20.34375 " clip-rule="nonzero"/></clipPath><clipPath id="73b2d48afc"><path d="M 32 18 L 34 18 L 34 19 L 32 19 Z M 32 18 " clip-rule="nonzero"/></clipPath><clipPath id="623866dee0"><path d="M 32.238281 18.5 L 33.664062 18.214844 L 33.804688 18.925781 L 32.382812 19.210938 Z M 32.238281 18.5 " clip-rule="nonzero"/></clipPath><clipPath id="f3d7b06726"><path d="M 32.238281 18.5 L 33.664062 18.214844 L 33.804688 18.925781 L 32.382812 19.210938 Z M 32.238281 18.5 " clip-rule="nonzero"/></clipPath><clipPath id="4c13f50063"><path d="M 33 18 L 35 18 L 35 19 L 33 19 Z M 33 18 " clip-rule="nonzero"/></clipPath><clipPath id="da4127b56a"><path d="M 33.164062 18.554688 L 34.457031 17.902344 L 34.785156 18.550781 L 33.488281 19.203125 Z M 33.164062 18.554688 " clip-rule="nonzero"/></clipPath><clipPath id="9e5c59936d"><path d="M 33.164062 18.554688 L 34.457031 17.902344 L 34.785156 18.550781 L 33.488281 19.203125 Z M 33.164062 18.554688 " clip-rule="nonzero"/></clipPath><clipPath id="b2fa18e471"><path d="M 26 10 L 32 10 L 32 12 L 26 12 Z M 26 10 " clip-rule="nonzero"/></clipPath><clipPath id="c7e4133f66"><path d="M 26.933594 12.222656 L 26.6875 10.792969 L 30.980469 10.058594 L 31.226562 11.492188 Z M 26.933594 12.222656 " clip-rule="nonzero"/></clipPath><clipPath id="0d6bb20e8b"><path d="M 26.933594 12.222656 L 26.6875 10.792969 L 30.980469 10.058594 L 31.226562 11.492188 Z M 26.933594 12.222656 " clip-rule="nonzero"/></clipPath></defs><g fill="#343434" fill-opacity="1"><g transform="translate(39.313683, 17.075316)"><g><path d="M 4.9375 -3.65625 C 4.59375 -4.046875 4.1875 -4.390625 3.71875 -4.625 C 3.6875 -4.625 3.671875 -4.65625 3.640625 -4.671875 C 4.28125 -5.34375 4.828125 -6.125 5.25 -6.953125 C 5.96875 -8.296875 6.40625 -9.8125 6.46875 -11.390625 L 4.90625 -11.453125 C 4.8125 -9.25 3.828125 -7.0625 2.28125 -5.5 L 2.21875 -11.5 L 0.65625 -11.5 L 0.765625 0.21875 L 2.328125 0.171875 L 2.296875 -3.453125 C 2.296875 -3.453125 2.3125 -3.453125 2.3125 -3.453125 C 2.859375 -3.375 3.375 -3.0625 3.734375 -2.640625 C 4.15625 -2.140625 4.421875 -1.453125 4.46875 -0.765625 L 6.03125 -0.859375 C 6 -1.375 5.890625 -1.859375 5.703125 -2.328125 C 5.53125 -2.8125 5.265625 -3.25 4.9375 -3.65625 Z M 4.9375 -3.65625 "/></g></g></g><g fill="#343434" fill-opacity="1"><g transform="translate(48.646219, 17.075316)"><g><path d="M 3.28125 -9.625 C 3.625 -9.625 3.96875 -9.625 4.3125 -9.625 L 4.3125 -11.1875 C 3.125 -11.1875 1.90625 -11.234375 0.65625 -11.140625 L 0.765625 -9.59375 C 1.078125 -9.609375 1.40625 -9.625 1.71875 -9.625 L 1.609375 -1.71875 C 1.28125 -1.703125 0.96875 -1.6875 0.65625 -1.65625 L 0.765625 -0.09375 C 1.90625 -0.203125 3.078125 -0.140625 4.3125 -0.125 L 4.3125 -1.71875 C 3.9375 -1.71875 3.5625 -1.71875 3.1875 -1.71875 Z M 3.28125 -9.625 "/></g></g></g><g fill="#343434" fill-opacity="1"><g transform="translate(56.119105, 17.075316)"><g><path d="M 6.609375 -11.375 L 5.046875 -11.375 L 5.0625 -7.15625 C 5.0625 -6.453125 5.0625 -5.765625 5.0625 -5.078125 L 5.046875 -4.6875 L 4.71875 -5.328125 C 4.59375 -5.5625 4.484375 -5.78125 4.375 -6 C 4.28125 -6.21875 4.15625 -6.4375 4.0625 -6.65625 C 4.015625 -6.765625 3.96875 -6.875 3.921875 -6.984375 L 3.828125 -7.15625 L 3.75 -7.34375 L 3.671875 -7.5 L 3.59375 -7.671875 C 3.546875 -7.78125 3.46875 -7.890625 3.421875 -8.015625 L 3.078125 -8.65625 C 2.859375 -9.109375 2.625 -9.53125 2.390625 -10.046875 L 0.890625 -9.765625 L 0.84375 -8.8125 L 0.796875 -7.828125 L 0.765625 -6.84375 L 0.734375 -6.3125 C 0.71875 -5.640625 0.703125 -4.984375 0.6875 -4.34375 C 0.65625 -3.015625 0.65625 -1.71875 0.65625 -0.390625 L 2.21875 -0.390625 C 2.21875 -1.703125 2.21875 -3 2.25 -4.3125 C 2.265625 -4.9375 2.28125 -5.59375 2.296875 -6.25 L 2.328125 -6.6875 L 2.328125 -6.671875 L 2.390625 -6.53125 L 2.484375 -6.34375 C 2.53125 -6.234375 2.578125 -6.125 2.640625 -5.984375 C 2.734375 -5.765625 2.859375 -5.53125 2.96875 -5.296875 C 3.078125 -5.078125 3.203125 -4.84375 3.3125 -4.609375 L 3.65625 -3.953125 C 4.109375 -3.046875 4.546875 -2.171875 4.984375 -1.078125 L 6.515625 -1.328125 C 6.53125 -1.640625 6.546875 -1.984375 6.5625 -2.3125 L 6.59375 -3.34375 C 6.59375 -3.6875 6.609375 -4.046875 6.609375 -4.390625 L 6.625 -5.0625 C 6.625 -5.765625 6.625 -6.453125 6.625 -7.15625 Z M 6.609375 -11.375 "/></g></g></g><g fill="#343434" fill-opacity="1"><g transform="translate(65.892079, 17.075316)"><g><path d="M 6.75 -7.078125 C 6.703125 -7.46875 6.609375 -7.859375 6.46875 -8.234375 C 6.203125 -8.96875 5.765625 -9.65625 5.171875 -10.21875 C 4.875 -10.484375 4.53125 -10.734375 4.171875 -10.90625 C 3.8125 -11.109375 3.421875 -11.234375 3.015625 -11.328125 C 2.21875 -11.5 1.421875 -11.4375 0.671875 -11.25 L 0.6875 -11.203125 L 0.65625 -11.1875 L 0.859375 -0.984375 L 0.84375 0.0625 C 1.359375 0.0625 1.859375 0 2.34375 -0.140625 L 2.453125 -0.140625 L 2.453125 -0.15625 C 2.6875 -0.25 2.921875 -0.328125 3.140625 -0.421875 C 3.859375 -0.734375 4.5 -1.203125 5.046875 -1.78125 C 5.5625 -2.328125 5.96875 -3 6.265625 -3.703125 C 6.5625 -4.421875 6.71875 -5.171875 6.765625 -5.921875 C 6.78125 -6.09375 6.78125 -6.296875 6.78125 -6.46875 C 6.78125 -6.671875 6.78125 -6.890625 6.75 -7.078125 Z M 5.203125 -6.015625 C 5.171875 -5.4375 5.046875 -4.84375 4.8125 -4.3125 C 4.59375 -3.75 4.296875 -3.265625 3.875 -2.84375 C 3.484375 -2.421875 3.03125 -2.09375 2.515625 -1.859375 C 2.484375 -1.84375 2.453125 -1.828125 2.421875 -1.8125 L 2.234375 -9.859375 C 2.390625 -9.84375 2.5625 -9.8125 2.703125 -9.78125 C 3.234375 -9.6875 3.703125 -9.421875 4.109375 -9.0625 C 4.5 -8.6875 4.8125 -8.21875 4.984375 -7.703125 C 5.09375 -7.421875 5.171875 -7.15625 5.203125 -6.890625 C 5.21875 -6.75 5.21875 -6.609375 5.21875 -6.46875 C 5.21875 -6.328125 5.21875 -6.1875 5.203125 -6.015625 Z M 5.203125 -6.015625 "/></g></g></g><g fill="#343434" fill-opacity="1"><g transform="translate(75.828171, 17.075316)"><g><path d="M 2.703125 -1.65625 C 2.578125 -1.65625 2.453125 -1.65625 2.3125 -1.65625 L 2.28125 -5.015625 C 2.46875 -5.03125 2.65625 -5.046875 2.859375 -5.0625 C 3.234375 -5.078125 3.609375 -5.09375 3.953125 -5.09375 L 3.96875 -6.65625 C 3.546875 -6.65625 3.140625 -6.640625 2.75 -6.625 C 2.59375 -6.609375 2.4375 -6.59375 2.265625 -6.578125 L 2.234375 -9.859375 C 2.984375 -9.875 3.734375 -9.875 4.5 -9.875 L 4.5 -11.4375 C 3.5 -11.453125 2.53125 -11.453125 1.515625 -11.40625 L 0.65625 -11.40625 L 0.765625 -0.046875 L 2.328125 -0.078125 L 2.328125 -0.09375 C 2.453125 -0.09375 2.578125 -0.09375 2.6875 -0.09375 L 4.59375 -0.078125 L 4.59375 -1.640625 Z M 2.703125 -1.65625 "/></g></g></g><g fill="#343434" fill-opacity="1"><g transform="translate(83.578377, 17.075316)"><g><path d="M 5.53125 -8.53125 L 5.5 -8.703125 L 5.4375 -8.890625 C 5.40625 -9 5.34375 -9.125 5.296875 -9.234375 C 5.265625 -9.296875 5.234375 -9.359375 5.21875 -9.40625 C 5.1875 -9.484375 5.15625 -9.53125 5.125 -9.59375 L 5.03125 -9.75 L 4.953125 -9.84375 C 4.9375 -9.875 4.921875 -9.890625 4.890625 -9.921875 L 4.78125 -10.078125 C 4.734375 -10.125 4.6875 -10.171875 4.625 -10.234375 C 4.53125 -10.34375 4.453125 -10.40625 4.359375 -10.484375 C 4.171875 -10.640625 3.96875 -10.796875 3.71875 -10.921875 C 3.46875 -11.0625 3.203125 -11.15625 2.9375 -11.203125 C 2.65625 -11.265625 2.390625 -11.265625 2.140625 -11.265625 L 0.71875 -11.296875 C 0.65625 -9.46875 0.65625 -7.640625 0.65625 -5.796875 C 0.640625 -3.96875 0.65625 -2.125 0.6875 -0.296875 L 2.25 -0.3125 C 2.234375 -1.171875 2.234375 -2.046875 2.21875 -2.921875 C 2.359375 -2.90625 2.53125 -2.875 2.671875 -2.765625 C 2.890625 -2.65625 3.09375 -2.46875 3.3125 -2.203125 C 3.703125 -1.6875 3.984375 -1.0625 4.078125 -0.421875 L 5.625 -0.671875 C 5.484375 -1.578125 5.109375 -2.453125 4.53125 -3.171875 C 4.359375 -3.390625 4.15625 -3.625 3.90625 -3.828125 L 4 -3.875 C 4.09375 -3.953125 4.1875 -4.03125 4.296875 -4.109375 L 4.4375 -4.21875 L 4.5 -4.296875 L 4.5625 -4.359375 C 4.75 -4.53125 4.90625 -4.734375 5.0625 -4.953125 C 5.140625 -5.078125 5.203125 -5.171875 5.265625 -5.296875 C 5.28125 -5.34375 5.3125 -5.421875 5.34375 -5.484375 L 5.4375 -5.65625 C 5.453125 -5.71875 5.46875 -5.796875 5.484375 -5.84375 C 5.5 -5.90625 5.53125 -5.96875 5.53125 -6.015625 C 5.5625 -6.15625 5.59375 -6.265625 5.609375 -6.390625 L 5.640625 -6.578125 C 5.640625 -6.625 5.65625 -6.6875 5.65625 -6.75 C 5.671875 -6.875 5.671875 -6.984375 5.6875 -7.109375 C 5.703125 -7.578125 5.65625 -8.0625 5.53125 -8.53125 Z M 4.125 -7.15625 C 4.109375 -7.0625 4.109375 -6.984375 4.109375 -6.90625 L 4.09375 -6.78125 L 4.0625 -6.65625 C 4.0625 -6.578125 4.03125 -6.5 4.015625 -6.421875 C 4.015625 -6.375 4 -6.34375 3.984375 -6.3125 C 3.984375 -6.265625 3.96875 -6.234375 3.953125 -6.203125 L 3.921875 -6.09375 C 3.90625 -6.0625 3.875 -6.03125 3.859375 -6 C 3.828125 -5.9375 3.796875 -5.890625 3.765625 -5.828125 C 3.671875 -5.703125 3.59375 -5.578125 3.46875 -5.484375 L 3.296875 -5.3125 C 3.234375 -5.265625 3.171875 -5.21875 3.09375 -5.171875 L 3 -5.109375 L 2.890625 -5.046875 C 2.828125 -4.984375 2.734375 -4.9375 2.65625 -4.90625 C 2.515625 -4.828125 2.359375 -4.765625 2.21875 -4.703125 C 2.21875 -5.0625 2.21875 -5.4375 2.21875 -5.796875 C 2.21875 -7.09375 2.21875 -8.40625 2.25 -9.703125 C 2.375 -9.703125 2.515625 -9.6875 2.625 -9.671875 C 2.75 -9.640625 2.875 -9.609375 2.984375 -9.546875 C 3.09375 -9.484375 3.21875 -9.390625 3.34375 -9.296875 C 3.40625 -9.234375 3.484375 -9.171875 3.53125 -9.140625 C 3.546875 -9.109375 3.5625 -9.09375 3.59375 -9.046875 L 3.65625 -8.96875 C 3.8125 -8.765625 3.9375 -8.46875 4.015625 -8.15625 C 4.09375 -7.828125 4.125 -7.484375 4.125 -7.15625 Z M 4.125 -7.15625 "/></g></g></g><g clip-path="url(#8e5e3b9373)"><g clip-path="url(#f635e7a315)"><g clip-path="url(#4448762fd7)"><path fill="#8c52ff" d="M 4.71875 9.0625 C 4.71875 9.0625 4.84375 9.667969 5.304688 9.507812 C 5.765625 9.34375 6.1875 9.300781 6.347656 9.261719 C 6.507812 9.222656 6.929688 9.265625 7.285156 9.171875 C 7.328125 9.160156 7.679688 8.96875 7.820312 8.6875 C 8.007812 8.3125 7.949219 8.183594 7.960938 7.933594 C 7.976562 7.507812 8.003906 7.246094 7.851562 6.992188 C 7.785156 6.878906 7.679688 6.769531 7.554688 6.726562 C 7.386719 6.671875 7.183594 6.617188 6.90625 6.675781 C 6.609375 6.734375 6.4375 6.785156 6.007812 6.804688 C 5.578125 6.824219 5.382812 6.996094 5.15625 7.0625 C 4.925781 7.128906 4.734375 7.367188 4.542969 7.652344 C 4.363281 7.921875 4.71875 9.0625 4.71875 9.0625 " fill-opacity="1" fill-rule="nonzero"/></g></g></g><g clip-path="url(#8cecbc246f)"><path fill="#feb823" d="M 2.269531 8.390625 C 2.164062 8.390625 2.074219 8.480469 2.074219 8.585938 C 2.074219 8.585938 2.074219 8.589844 2.074219 8.589844 C 2.085938 9.414062 2.125 12.660156 2.074219 15.632812 C 2.011719 19.066406 2.378906 20.660156 2.378906 20.660156 L 13.605469 20.660156 C 13.605469 20.660156 14.097656 17.226562 13.976562 14.585938 C 13.851562 11.949219 13.976562 10.046875 13.546875 9.25 C 13.117188 8.453125 7.902344 8.515625 6.367188 8.453125 C 5.082031 8.402344 2.933594 8.394531 2.269531 8.390625 Z M 2.269531 8.390625 " fill-opacity="1" fill-rule="nonzero"/></g><g clip-path="url(#3db026d2e4)"><path fill="#ffffff" d="M 9.625 10.054688 C 10.378906 11.769531 10.078125 13.53125 9.160156 14.476562 C 8.242188 15.421875 5.640625 17.28125 3.484375 13.898438 C 1.332031 10.519531 6.074219 7.429688 8.203125 8.734375 C 9.523438 9.542969 9.625 10.054688 9.625 10.054688 Z M 9.625 10.054688 " fill-opacity="1" fill-rule="nonzero"/></g><g clip-path="url(#9df6deb622)"><path fill="#f9643f" d="M 21.203125 12.996094 C 19.804688 14.761719 19.296875 17.800781 21.203125 19.777344 C 23.113281 21.757812 26.277344 20.980469 28.511719 21.332031 C 30.746094 21.683594 33.5 21.683594 34.0625 18.578125 C 34.628906 15.46875 33.285156 14.691406 29.46875 12.5 C 25.652344 10.308594 23.890625 9.601562 21.203125 12.996094 Z M 21.203125 12.996094 " fill-opacity="1" fill-rule="nonzero"/></g><g clip-path="url(#faddf0f9c6)"><path fill="#ffffff" d="M 31.355469 13.230469 C 31.980469 14.652344 31.730469 16.109375 30.96875 16.894531 C 30.207031 17.679688 28.050781 19.21875 26.265625 16.417969 C 24.480469 13.613281 28.410156 11.054688 30.175781 12.136719 C 31.265625 12.804688 31.355469 13.230469 31.355469 13.230469 Z M 31.355469 13.230469 " fill-opacity="1" fill-rule="nonzero"/></g><g clip-path="url(#e60006dbe6)"><g clip-path="url(#90378c8697)"><g clip-path="url(#55930e3a44)"><path fill="#343434" d="M 7.976562 15.277344 C 6.949219 15.65625 5.9375 15.421875 5.417969 14.851562 C 4.898438 14.285156 3.90625 12.703125 5.953125 11.566406 C 7.996094 10.429688 9.628906 13.300781 8.796875 14.496094 C 8.28125 15.234375 7.976562 15.277344 7.976562 15.277344 Z M 7.976562 15.277344 " fill-opacity="1" fill-rule="nonzero"/></g></g></g><g clip-path="url(#5d44bea0d7)"><g clip-path="url(#52431e2b31)"><g clip-path="url(#7298f96e5b)"><path fill="#343434" d="M 29.328125 17.578125 C 28.394531 17.925781 27.472656 17.710938 27 17.191406 C 26.527344 16.675781 25.625 15.238281 27.484375 14.207031 C 29.34375 13.171875 30.832031 15.78125 30.070312 16.867188 C 29.601562 17.542969 29.328125 17.578125 29.328125 17.578125 Z M 29.328125 17.578125 " fill-opacity="1" fill-rule="nonzero"/></g></g></g><g clip-path="url(#94fae542b5)"><path fill="#8c52ff" d="M 12.476562 22.09375 C 12.476562 22.09375 13.054688 22.386719 15.898438 22.433594 C 18.746094 22.480469 20.671875 22.335938 21.394531 22.265625 C 22.117188 22.191406 22.40625 22.09375 22.40625 22.09375 C 22.40625 22.09375 22.699219 15.136719 22.40625 13.722656 C 22.117188 12.308594 21.347656 9.984375 18.890625 9.21875 C 16.429688 8.453125 15.898438 9.105469 14.648438 10.132812 C 13.398438 11.15625 12.285156 17.652344 12.335938 19.632812 C 12.386719 21.613281 12.476562 22.09375 12.476562 22.09375 Z M 12.476562 22.09375 " fill-opacity="1" fill-rule="nonzero"/></g><g clip-path="url(#98b6c061e6)"><path fill="#ffffff" d="M 20.582031 12.230469 C 21.335938 13.945312 21.035156 15.703125 20.117188 16.648438 C 19.199219 17.597656 16.59375 19.457031 14.441406 16.074219 C 12.285156 12.691406 17.03125 9.601562 19.160156 10.90625 C 20.476562 11.714844 20.582031 12.230469 20.582031 12.230469 Z M 20.582031 12.230469 " fill-opacity="1" fill-rule="nonzero"/></g><g clip-path="url(#8c6e134138)"><g clip-path="url(#ba7ff1668a)"><g clip-path="url(#69726cc4d8)"><path fill="#343434" d="M 18.460938 17.628906 C 17.375 18.03125 16.304688 17.78125 15.757812 17.179688 C 15.207031 16.578125 14.160156 14.910156 16.320312 13.707031 C 18.480469 12.507812 20.207031 15.539062 19.324219 16.804688 C 18.78125 17.585938 18.460938 17.628906 18.460938 17.628906 Z M 18.460938 17.628906 " fill-opacity="1" fill-rule="nonzero"/></g></g></g><g clip-path="url(#6fbe9e4227)"><g clip-path="url(#f8f5b74d31)"><g clip-path="url(#281a769438)"><path fill="#ffb100" d="M 20.257812 10.070312 C 20.042969 10.152344 19.832031 10.101562 19.722656 9.980469 C 19.613281 9.863281 19.40625 9.53125 19.835938 9.296875 C 20.261719 9.058594 20.605469 9.65625 20.429688 9.90625 C 20.320312 10.0625 20.257812 10.070312 20.257812 10.070312 Z M 20.257812 10.070312 " fill-opacity="1" fill-rule="nonzero"/></g></g></g><g clip-path="url(#f20c536f8f)"><g clip-path="url(#a40c6d7dcd)"><g clip-path="url(#859e6b685f)"><path fill="#ffb100" d="M 18.074219 9.210938 C 17.863281 9.292969 17.648438 9.242188 17.542969 9.125 C 17.433594 9.003906 17.226562 8.675781 17.652344 8.4375 C 18.082031 8.199219 18.421875 8.800781 18.246094 9.050781 C 18.140625 9.203125 18.074219 9.210938 18.074219 9.210938 Z M 18.074219 9.210938 " fill-opacity="1" fill-rule="nonzero"/></g></g></g><g clip-path="url(#4982df0c60)"><g clip-path="url(#e70cde47b5)"><g clip-path="url(#b93427c48e)"><path fill="#ffb100" d="M 15.875 9.804688 C 15.660156 9.882812 15.449219 9.835938 15.339844 9.714844 C 15.230469 9.597656 15.023438 9.265625 15.453125 9.03125 C 15.878906 8.792969 16.222656 9.390625 16.046875 9.640625 C 15.9375 9.796875 15.875 9.804688 15.875 9.804688 Z M 15.875 9.804688 " fill-opacity="1" fill-rule="nonzero"/></g></g></g><g clip-path="url(#d7772f9922)"><g clip-path="url(#821611da27)"><g clip-path="url(#fa8716fa96)"><path fill="#343434" d="M 7.902344 16.433594 C 7.902344 16.433594 8.640625 16.078125 9.140625 15.84375 C 9.640625 15.613281 10.859375 15.195312 11.066406 15.183594 C 11.066406 15.183594 11.183594 15.320312 11.261719 15.941406 C 11.335938 16.566406 11.554688 18.210938 11.554688 18.210938 C 11.554688 18.210938 10.539062 18.785156 9.96875 18.992188 C 9.402344 19.199219 9.230469 19.183594 9.230469 19.183594 C 9.230469 19.183594 7.746094 16.640625 7.902344 16.433594 Z M 7.902344 16.433594 " fill-opacity="1" fill-rule="nonzero"/></g></g></g><g clip-path="url(#a3df920a17)"><g clip-path="url(#453005d7c0)"><g clip-path="url(#5d082932fc)"><path fill="#f9643f" d="M 11.738281 17.046875 C 11.738281 17.046875 11.449219 16.488281 11.042969 16.773438 C 10.632812 17.0625 10.234375 17.222656 10.085938 17.304688 C 9.941406 17.390625 9.515625 17.460938 9.191406 17.652344 C 9.152344 17.675781 8.863281 17.960938 8.804688 18.277344 C 8.726562 18.695312 8.816406 18.804688 8.878906 19.054688 C 8.980469 19.476562 9.023438 19.738281 9.242188 19.945312 C 9.339844 20.039062 9.472656 20.113281 9.609375 20.121094 C 9.789062 20.132812 10.003906 20.128906 10.257812 19.996094 C 10.53125 19.851562 10.6875 19.757812 11.101562 19.617188 C 11.519531 19.480469 11.660156 19.257812 11.867188 19.128906 C 12.070312 19 12.195312 18.710938 12.300781 18.378906 C 12.402344 18.0625 11.738281 17.046875 11.738281 17.046875 " fill-opacity="1" fill-rule="nonzero"/></g></g></g><g clip-path="url(#b186ea89de)"><g clip-path="url(#478ad30f00)"><g clip-path="url(#d6a686f395)"><path fill="#343434" d="M 29.527344 19.011719 C 29.109375 18.988281 28.796875 18.730469 28.976562 18.371094 C 29.160156 18.011719 30.039062 18.210938 30.429688 18.042969 C 30.824219 17.871094 31.664062 17.476562 31.808594 18.191406 C 31.953125 18.90625 31.628906 19.496094 31.046875 19.371094 C 30.464844 19.25 29.527344 19.011719 29.527344 19.011719 Z M 29.527344 19.011719 " fill-opacity="1" fill-rule="nonzero"/></g></g></g><g clip-path="url(#d37f53f907)"><path fill="#343434" d="M 16.617188 20.460938 C 16.617188 20.460938 17.558594 20.375 18.933594 20.332031 C 20.304688 20.292969 20.621094 20.28125 20.621094 20.28125 C 20.621094 20.28125 20.523438 22.171875 18.679688 22.246094 C 16.832031 22.320312 16.640625 20.871094 16.617188 20.460938 Z M 16.617188 20.460938 " fill-opacity="1" fill-rule="nonzero"/></g><g clip-path="url(#92698d1142)"><path fill="#ffffff" d="M 17.441406 20.453125 C 17.441406 20.453125 17.992188 20.402344 18.796875 20.378906 C 19.605469 20.355469 19.789062 20.347656 19.789062 20.347656 C 19.789062 20.347656 19.730469 21.457031 18.648438 21.5 C 17.566406 21.542969 17.453125 20.691406 17.441406 20.453125 Z M 17.441406 20.453125 " fill-opacity="1" fill-rule="nonzero"/></g><g clip-path="url(#73b2d48afc)"><g clip-path="url(#623866dee0)"><g clip-path="url(#f3d7b06726)"><path fill="#ffffff" d="M 32.253906 18.582031 C 32.253906 18.578125 32.253906 18.574219 32.253906 18.570312 C 32.273438 18.496094 32.375 18.472656 32.871094 18.453125 C 33.375 18.429688 33.582031 18.417969 33.582031 18.417969 C 33.582031 18.417969 33.609375 18.527344 33.40625 18.6875 C 33.203125 18.84375 32.726562 19.027344 32.457031 18.839844 C 32.292969 18.726562 32.261719 18.609375 32.253906 18.582031 Z M 32.253906 18.582031 " fill-opacity="1" fill-rule="nonzero"/></g></g></g><g clip-path="url(#4c13f50063)"><g clip-path="url(#da4127b56a)"><g clip-path="url(#9e5c59936d)"><path fill="#ffffff" d="M 33.199219 18.628906 C 33.199219 18.625 33.195312 18.621094 33.195312 18.617188 C 33.195312 18.539062 33.285156 18.492188 33.757812 18.339844 C 34.242188 18.183594 34.433594 18.117188 34.433594 18.117188 C 34.433594 18.117188 34.492188 18.214844 34.335938 18.421875 C 34.183594 18.628906 33.773438 18.929688 33.460938 18.824219 C 33.273438 18.757812 33.210938 18.652344 33.199219 18.628906 Z M 33.199219 18.628906 " fill-opacity="1" fill-rule="nonzero"/></g></g></g><g clip-path="url(#b2fa18e471)"><g clip-path="url(#c7e4133f66)"><g clip-path="url(#0d6bb20e8b)"><path fill="#343434" d="M 26.855469 11.769531 L 31.339844 11.472656 L 30.910156 10.042969 C 30.910156 10.042969 29.179688 10.117188 28.578125 10.195312 C 27.980469 10.273438 26.929688 10.476562 26.929688 10.476562 Z M 26.855469 11.769531 " fill-opacity="1" fill-rule="nonzero"/></g></g></g><g fill="#8c52ff" fill-opacity="1"><g transform="translate(37.234899, 24.762078)"><g><path d="M 2.140625 0.09375 C 1.734375 0.09375 1.382812 0.0078125 1.09375 -0.15625 C 0.8125 -0.332031 0.59375 -0.566406 0.4375 -0.859375 C 0.289062 -1.160156 0.21875 -1.503906 0.21875 -1.890625 C 0.21875 -2.273438 0.289062 -2.613281 0.4375 -2.90625 C 0.59375 -3.207031 0.816406 -3.441406 1.109375 -3.609375 C 1.410156 -3.773438 1.757812 -3.859375 2.15625 -3.859375 C 2.425781 -3.859375 2.660156 -3.828125 2.859375 -3.765625 L 2.734375 -2.9375 C 2.578125 -2.96875 2.40625 -2.984375 2.21875 -2.984375 C 1.875 -2.984375 1.601562 -2.882812 1.40625 -2.6875 C 1.207031 -2.5 1.109375 -2.234375 1.109375 -1.890625 C 1.109375 -1.546875 1.207031 -1.273438 1.40625 -1.078125 C 1.613281 -0.878906 1.890625 -0.78125 2.234375 -0.78125 C 2.429688 -0.78125 2.597656 -0.796875 2.734375 -0.828125 L 2.859375 0 C 2.671875 0.0625 2.429688 0.09375 2.140625 0.09375 Z M 2.140625 0.09375 "/></g></g></g><g fill="#8c52ff" fill-opacity="1"><g transform="translate(45.263628, 24.762078)"><g><path d="M 2.171875 0.09375 C 1.785156 0.09375 1.441406 0.0078125 1.140625 -0.15625 C 0.847656 -0.332031 0.617188 -0.566406 0.453125 -0.859375 C 0.296875 -1.160156 0.21875 -1.503906 0.21875 -1.890625 C 0.21875 -2.265625 0.296875 -2.597656 0.453125 -2.890625 C 0.617188 -3.191406 0.847656 -3.425781 1.140625 -3.59375 C 1.441406 -3.769531 1.785156 -3.859375 2.171875 -3.859375 C 2.554688 -3.859375 2.894531 -3.769531 3.1875 -3.59375 C 3.476562 -3.425781 3.703125 -3.191406 3.859375 -2.890625 C 4.023438 -2.597656 4.109375 -2.265625 4.109375 -1.890625 C 4.109375 -1.503906 4.023438 -1.160156 3.859375 -0.859375 C 3.703125 -0.566406 3.476562 -0.332031 3.1875 -0.15625 C 2.894531 0.0078125 2.554688 0.09375 2.171875 0.09375 Z M 2.171875 -0.78125 C 2.484375 -0.78125 2.734375 -0.878906 2.921875 -1.078125 C 3.117188 -1.285156 3.21875 -1.554688 3.21875 -1.890625 C 3.21875 -2.210938 3.117188 -2.472656 2.921875 -2.671875 C 2.734375 -2.878906 2.484375 -2.984375 2.171875 -2.984375 C 1.847656 -2.984375 1.585938 -2.878906 1.390625 -2.671875 C 1.203125 -2.472656 1.109375 -2.210938 1.109375 -1.890625 C 1.109375 -1.554688 1.203125 -1.285156 1.390625 -1.078125 C 1.585938 -0.878906 1.847656 -0.78125 2.171875 -0.78125 Z M 2.171875 -0.78125 "/></g></g></g><g fill="#8c52ff" fill-opacity="1"><g transform="translate(54.657737, 24.762078)"><g><path d="M 2.765625 -1.453125 L 2.765625 -3.765625 L 3.5625 -3.765625 L 3.5625 0 L 2.765625 0 L 1.28125 -2.265625 L 1.28125 0 L 0.46875 0 L 0.46875 -3.765625 L 1.265625 -3.765625 Z M 2.765625 -1.453125 "/></g></g></g><g fill="#8c52ff" fill-opacity="1"><g transform="translate(63.757519, 24.762078)"><g><path d="M 2.765625 -1.453125 L 2.765625 -3.765625 L 3.5625 -3.765625 L 3.5625 0 L 2.765625 0 L 1.28125 -2.265625 L 1.28125 0 L 0.46875 0 L 0.46875 -3.765625 L 1.265625 -3.765625 Z M 2.765625 -1.453125 "/></g></g></g><g fill="#8c52ff" fill-opacity="1"><g transform="translate(72.857303, 24.762078)"><g><path d="M 2.8125 -3.765625 L 2.8125 -3.03125 L 1.328125 -3.03125 L 1.328125 -2.234375 L 2.734375 -2.234375 L 2.734375 -1.5 L 1.328125 -1.5 L 1.328125 -0.734375 L 2.8125 -0.734375 L 2.8125 0 L 0.46875 0 L 0.46875 -3.765625 Z M 2.8125 -3.765625 "/></g></g></g><g fill="#8c52ff" fill-opacity="1"><g transform="translate(81.074079, 24.762078)"><g><path d="M 2.140625 0.09375 C 1.734375 0.09375 1.382812 0.0078125 1.09375 -0.15625 C 0.8125 -0.332031 0.59375 -0.566406 0.4375 -0.859375 C 0.289062 -1.160156 0.21875 -1.503906 0.21875 -1.890625 C 0.21875 -2.273438 0.289062 -2.613281 0.4375 -2.90625 C 0.59375 -3.207031 0.816406 -3.441406 1.109375 -3.609375 C 1.410156 -3.773438 1.757812 -3.859375 2.15625 -3.859375 C 2.425781 -3.859375 2.660156 -3.828125 2.859375 -3.765625 L 2.734375 -2.9375 C 2.578125 -2.96875 2.40625 -2.984375 2.21875 -2.984375 C 1.875 -2.984375 1.601562 -2.882812 1.40625 -2.6875 C 1.207031 -2.5 1.109375 -2.234375 1.109375 -1.890625 C 1.109375 -1.546875 1.207031 -1.273438 1.40625 -1.078125 C 1.613281 -0.878906 1.890625 -0.78125 2.234375 -0.78125 C 2.429688 -0.78125 2.597656 -0.796875 2.734375 -0.828125 L 2.859375 0 C 2.671875 0.0625 2.429688 0.09375 2.140625 0.09375 Z M 2.140625 0.09375 "/></g></g></g><g fill="#8c52ff" fill-opacity="1"><g transform="translate(89.102809, 24.762078)"><g><path d="M 0.09375 -3.765625 L 2.875 -3.765625 L 2.875 -2.9375 L 1.921875 -2.9375 L 1.921875 0 L 1.03125 0 L 1.03125 -2.9375 L 0.09375 -2.9375 Z M 0.09375 -3.765625 "/></g></g></g></svg>